<svg width="159" height="151" viewBox="0 0 159 151" fill="none" xmlns="http://www.w3.org/2000/svg">
<path d="M38.548 118.91L38.0435 122.448L99.6236 50.5083L100.128 47.0061L38.548 118.91Z" fill="#DA3F3F"/>
<path d="M117.31 35.09L92.3687 64.2559L55.3685 107.463V107.499L44.4684 120.205H42.3041L57.2466 102.769V102.734L92.8016 61.2223L113.053 37.5798L113.124 37.5082C114.494 36.6783 115.904 35.8841 117.31 35.09Z" fill="#FDC52C"/>
<path d="M93.7354 0.533021L85.4503 58.1816L85.1176 60.5069L84.9924 61.3225L61.5073 88.757L58.1732 92.6384L63.253 57.2372L28.4957 57.0011L22.6611 97.7182L0.481697 97.5751L14.4869 0L36.6699 0.139515L31.2288 37.9626L65.9861 38.1987L71.4272 0.375619L93.7354 0.533021Z" fill="white"/>
<path d="M109.39 96.459H157.447L152.575 119.082C149.588 124.616 145.628 129.739 140.691 134.472C135.74 139.204 129.891 143.039 123.148 145.98C116.405 148.935 109.093 150.398 101.251 150.398C91.7105 150.398 83.801 148.37 77.53 144.313C71.2732 140.256 66.9805 134.565 64.6874 127.242C62.3764 119.933 62.2333 111.584 64.2617 102.215C64.4978 101.099 64.7661 100.015 65.0487 98.9309L65.8357 98.0187L82.5311 78.5115L99.9813 58.1208H99.9956C100.593 57.8847 101.19 57.6665 101.802 57.4447C101.816 57.4447 101.834 57.4304 101.849 57.4304C102.163 57.3052 102.46 57.2086 102.743 57.1013C103.183 56.9582 103.559 56.833 103.873 56.7256C104.392 56.5682 104.721 56.4752 104.721 56.4752C110.098 54.8404 115.789 54.0391 121.764 54.0391C133.615 54.0391 142.766 56.9331 149.195 62.732C155.623 68.5344 158.707 76.3938 158.438 86.2958H134.213C133.333 82.9009 131.462 80.1965 128.6 78.2003C125.724 76.1898 121.967 75.181 117.328 75.181C110.098 75.181 103.777 77.6172 98.3536 82.4752C92.9304 87.3475 89.3316 93.9191 87.5393 102.218C85.604 111.226 86.4089 118.145 89.9612 122.971C93.5135 127.782 99.5341 130.2 108.009 130.2C113.464 130.2 118.558 128.709 123.305 125.704C128.053 122.717 131.873 118.456 134.767 112.922H105.859L109.39 96.459Z" fill="white"/>
</svg>
